# Blender 3.6.0
# www.blender.org
o d4D
v 0.000000 1.525602 0.000000
v 0.431506 0.915361 0.000000
v -0.215753 0.915361 -0.373695
v -0.215753 0.915361 0.373695
v -0.719176 -0.508534 -0.498260
v -0.719176 -0.508534 -1.245649
v -0.071918 -0.508534 -0.871954
v -0.503423 0.101707 -0.871954
v -0.719176 -0.508534 1.245649
v -0.719176 -0.508534 0.498260
v -0.071918 -0.508534 0.871954
v -0.503423 0.101707 0.871954
v 1.006846 0.101707 0.000000
v 1.438352 -0.508534 0.000000
v 0.791093 -0.508534 -0.373695
v 0.791093 -0.508534 0.373695
vn 0.4714 0.3333 -0.8165
vn -0.9428 0.3333 -0.0000
vn 0.4714 0.3333 0.8165
vn -0.0000 -1.0000 -0.0000
vt 0.506576 0.306882
vt 0.362239 0.056882
vt 0.650914 0.056882
vt 0.506577 0.306882
vt 0.362239 0.056882
vt 0.650914 0.056882
vt 0.379143 0.726646
vt 0.667818 0.726646
vt 0.523480 0.976646
vt 0.310582 0.409522
vt 0.166244 0.659522
vt 0.021906 0.409522
vt 0.667818 0.726646
vt 0.523480 0.976646
vt 0.379143 0.726646
vt 0.671748 0.406879
vt 0.527410 0.656879
vt 0.383072 0.406879
vt 0.671748 0.406879
vt 0.527410 0.656879
vt 0.383072 0.406879
vt 0.383072 0.406879
vt 0.671748 0.406879
vt 0.527410 0.656879
vt 0.379142 0.726646
vt 0.667818 0.726646
vt 0.523480 0.976646
vt 0.021906 0.409522
vt 0.310582 0.409522
vt 0.166244 0.659522
vt 0.166244 0.659522
vt 0.021907 0.409522
vt 0.310582 0.409522
s 0
f 1/1/1 2/2/1 3/3/1
f 1/4/2 3/5/2 4/6/2
f 1/1/3 4/2/3 2/3/3
f 7/7/4 5/8/4 6/9/4
f 13/10/1 14/11/1 15/12/1
f 8/13/2 6/14/2 5/15/2
f 11/16/4 9/17/4 10/18/4
f 12/19/3 9/20/3 11/21/3
f 12/22/2 10/23/2 9/24/2
f 8/25/1 7/26/1 6/27/1
f 13/28/3 16/29/3 14/30/3
f 14/31/4 16/32/4 15/33/4
