# Blender 3.6.0
# www.blender.org
o d100D
v -0.025036 -0.290799 1.061700
v -0.704346 -0.290799 0.568153
v -0.603797 -0.290799 -0.873649
v 0.644306 -0.290799 -0.844218
v 0.903779 -0.290799 -0.045641
v 0.224469 -0.933641 -0.266362
v 0.904438 0.290799 0.029861
v -0.043561 0.290799 -1.061101
v -0.714154 0.290799 -0.555773
v -0.588458 0.290799 0.884054
v 0.251087 0.290799 0.869399
v -0.178770 0.933641 0.298959
v 0.322690 -0.290799 0.845441
v 0.322690 -0.933641 0.131173
v -0.183961 -0.933641 -0.295794
v -0.025036 -0.933641 0.347431
v 1.002000 -0.290799 0.351894
v 0.235876 -0.290799 -0.873649
v 0.320352 0.933641 -0.136784
v 0.229084 0.933641 0.262404
v -0.339570 0.933641 -0.077637
v -0.031095 0.933641 -0.346941
v 0.995706 0.290799 -0.369328
v 0.307886 0.290799 -0.850944
v 0.658942 0.290799 0.832844
v -0.749258 0.290799 0.507457
v -1.022629 0.290799 -0.286469
v -0.338163 -0.933641 0.083552
v -0.758000 -0.290799 -0.494304
v -1.017473 -0.290799 0.304273
v -0.360976 -0.298638 0.828404
v -1.040286 -0.298638 0.334857
v -0.194888 -0.298638 -0.882370
v 0.778959 -0.298638 -0.458017
v 1.038433 -0.298638 0.340560
v 0.359123 -0.941480 0.119839
v 1.032331 0.298638 -0.358631
v -0.375379 0.298638 -0.821978
v -1.045972 0.298638 -0.316650
v -0.179459 0.298638 0.885636
v 0.660086 0.298638 0.870982
v 0.230229 0.941480 0.300542
v -0.002998 -0.298638 1.092847
v -0.002998 -0.941480 0.378578
v 0.224948 -0.941480 -0.304514
v -0.360976 -0.941480 0.114136
v 0.676312 -0.298638 0.599299
v 0.644785 -0.298638 -0.882370
v -0.009605 0.941480 -0.378468
v 0.356977 0.941480 -0.126088
v -0.214688 0.941480 0.311833
v -0.362913 0.941480 -0.107818
v 0.665749 0.298638 -0.611012
v -0.022071 0.298638 -1.092628
v 0.786834 0.298638 0.444352
v -0.624375 0.298638 0.896928
v -0.897746 0.298638 0.103001
v -0.220097 -0.941480 -0.308039
v -0.639934 -0.298638 -0.885894
v -0.899407 -0.298638 -0.087318
vn -0.7032 0.6685 0.2421
vn 0.4266 0.6685 -0.6092
vn -0.4476 0.6685 -0.5939
vn 0.7112 0.6685 0.2174
vn 0.0130 0.6685 0.7436
vn -0.0000 -0.6685 -0.7437
vn 0.4371 -0.6685 0.6017
vn -0.4371 -0.6685 0.6017
vn 0.7073 -0.6685 -0.2298
vn -0.7073 -0.6685 -0.2298
vt 0.297878 0.407462
vt 0.166266 0.678435
vt 0.034653 0.407462
vt 0.619469 0.075947
vt 0.507499 0.306434
vt 0.395564 0.075931
vt 0.980986 0.751476
vt 0.826750 1.069027
vt 0.672513 0.751476
vt 0.676892 0.059913
vt 0.961927 0.059913
vt 0.819409 0.353337
vt 0.300752 0.722373
vt 0.169537 0.993538
vt 0.037527 0.722759
vt 0.656498 0.727536
vt 0.523767 0.997963
vt 0.393274 0.726449
vt 0.653461 0.410826
vt 0.526066 0.673114
vt 0.398671 0.410826
vt 0.931504 0.405864
vt 0.810992 0.653983
vt 0.690479 0.405864
vt 0.282371 0.061491
vt 0.154067 0.317190
vt 0.032413 0.058261
vt 0.458811 0.232797
vt 0.349033 0.458814
vt 0.239255 0.232797
vt 0.455528 0.238452
vt 0.348364 0.459089
vt 0.241199 0.238452
vt 0.451795 0.235854
vt 0.346934 0.451708
vt 0.242105 0.235838
vt 0.464268 0.243052
vt 0.349973 0.478369
vt 0.235678 0.243052
vt 0.234037 0.231190
vt 0.457380 0.231190
vt 0.345709 0.461106
vt 0.446860 0.237339
vt 0.342304 0.453411
vt 0.237114 0.237646
vt 0.451579 0.238871
vt 0.346748 0.452455
vt 0.243684 0.238012
vt 0.446203 0.242762
vt 0.346429 0.448184
vt 0.246654 0.242762
vt 0.452834 0.238045
vt 0.347749 0.454399
vt 0.242665 0.238045
vt 0.467538 0.218582
vt 0.348005 0.456802
vt 0.234668 0.215573
s 0
f 26/1/1 21/2/1 27/3/1
f 24/4/2 19/5/2 23/6/2
f 9/7/3 22/8/3 8/9/3
f 25/10/4 7/11/4 20/12/4
f 11/13/5 12/14/5 10/15/5
f 18/16/6 15/17/6 3/18/6
f 13/19/7 14/20/7 17/21/7
f 2/22/8 16/23/8 1/24/8
f 5/25/9 6/26/9 4/27/9
f 29/28/10 28/29/10 30/30/10
f 56/31/1 51/32/1 57/33/1
f 54/34/2 49/35/2 53/36/2
f 39/37/3 52/38/3 38/39/3
f 55/40/4 37/41/4 50/42/4
f 41/43/5 42/44/5 40/45/5
f 48/46/6 45/47/6 33/48/6
f 43/49/7 44/50/7 47/51/7
f 32/52/8 46/53/8 31/54/8
f 35/55/9 36/56/9 34/57/9
f 59/28/10 58/29/10 60/30/10
