# Blender 3.6.0
# www.blender.org
o d10D
v -0.135869 -0.254845 1.021124
v -0.929161 -0.254845 0.444764
v -0.490282 -0.254845 -0.905969
v 0.710122 -0.254845 -0.746245
v 1.013133 -0.254845 0.186326
v 0.219841 -1.005550 -0.071431
v 1.009727 0.254845 -0.203979
v -0.153669 0.254845 -1.018598
v -0.936782 0.254845 -0.428480
v -0.474396 0.254845 0.914387
v 0.506018 0.254845 0.897274
v 0.004034 1.005550 0.231119
v 0.135869 -0.254845 1.021124
v 0.135869 -1.005550 0.187007
v -0.000000 -1.005550 -0.231154
v -0.135869 -1.005550 0.187007
v 0.929161 -0.254845 0.444764
v 0.490282 -0.254845 -0.905969
v 0.132585 1.005550 -0.189350
v 0.221054 1.005550 0.067583
v -0.218560 1.005550 0.075256
v -0.139112 1.005550 -0.184608
v 0.921257 0.254845 -0.460912
v 0.118027 0.254845 -1.023340
v 0.723038 0.254845 0.733738
v -0.696990 0.254845 0.758525
v -1.016230 0.254845 -0.168616
v -0.219840 -1.005550 -0.071431
v -0.710122 -0.254845 -0.746245
v -1.013133 -0.254845 0.186326
vn -0.7032 0.6685 0.2421
vn 0.4266 0.6685 -0.6092
vn -0.4476 0.6685 -0.5939
vn 0.7112 0.6685 0.2174
vn 0.0130 0.6685 0.7436
vn -0.0000 -0.6685 -0.7437
vn 0.4371 -0.6685 0.6017
vn -0.4371 -0.6685 0.6017
vn 0.7073 -0.6685 -0.2298
vn -0.7073 -0.6685 -0.2298
vt 0.297878 0.407462
vt 0.166266 0.678435
vt 0.034653 0.407462
vt 0.619469 0.075947
vt 0.507499 0.306434
vt 0.395564 0.075931
vt 0.980986 0.751476
vt 0.826750 1.069027
vt 0.672513 0.751476
vt 0.676892 0.059913
vt 0.961927 0.059913
vt 0.819409 0.353337
vt 0.300752 0.722373
vt 0.169537 0.993538
vt 0.037527 0.722759
vt 0.656498 0.727536
vt 0.523767 0.997963
vt 0.393274 0.726449
vt 0.653461 0.410826
vt 0.526066 0.673114
vt 0.398671 0.410826
vt 0.931504 0.405864
vt 0.810992 0.653983
vt 0.690479 0.405864
vt 0.282371 0.061491
vt 0.154067 0.317190
vt 0.032413 0.058261
vt 0.458811 0.232797
vt 0.349033 0.458814
vt 0.239255 0.232797
s 0
f 26/1/1 21/2/1 27/3/1
f 24/4/2 19/5/2 23/6/2
f 9/7/3 22/8/3 8/9/3
f 25/10/4 7/11/4 20/12/4
f 11/13/5 12/14/5 10/15/5
f 18/16/6 15/17/6 3/18/6
f 13/19/7 14/20/7 17/21/7
f 2/22/8 16/23/8 1/24/8
f 5/25/9 6/26/9 4/27/9
f 29/28/10 28/29/10 30/30/10
