# Blender 3.6.0
# www.blender.org
o d20
v 1.275976 0.000000 -0.788597
v -1.275976 0.000000 -0.788597
v 1.275976 0.000000 0.788597
v -1.275976 0.000000 0.788597
v 0.788597 1.275976 0.000000
v 0.788597 -1.275976 0.000000
v -0.788597 1.275976 0.000000
v -0.788597 -1.275976 0.000000
v 0.000000 0.788597 -1.275976
v 0.000000 0.788597 1.275976
v 0.000000 -0.788597 -1.275976
v 0.000000 -0.788597 1.275976
vn 0.5774 0.5774 -0.5774
vn 0.5774 -0.5774 -0.5774
vn 0.5774 0.5774 0.5774
vn 0.5774 -0.5774 0.5774
vn -0.5774 0.5774 -0.5774
vn -0.5774 -0.5774 -0.5774
vn -0.5774 0.5774 0.5774
vn -0.5774 -0.5774 0.5774
vn 0.3568 -0.0000 -0.9342
vn -0.3568 -0.0000 -0.9342
vn 0.3568 -0.0000 0.9342
vn -0.3568 -0.0000 0.9342
vn 0.9342 0.3568 -0.0000
vn 0.9342 -0.3568 -0.0000
vn -0.9342 0.3568 -0.0000
vn -0.9342 -0.3568 -0.0000
vn -0.0000 0.9342 -0.3568
vn -0.0000 0.9342 0.3568
vn -0.0000 -0.9342 -0.3568
vn -0.0000 -0.9342 0.3568
vt 0.200000 0.346410
vt 0.000000 0.461880
vt 0.000000 0.230940
vt 0.800000 0.000000
vt 1.000000 0.115470
vt 0.800000 0.230940
vt 0.200000 0.461880
vt 0.200000 0.230940
vt 0.400000 0.346410
vt 1.000000 0.346410
vt 0.800000 0.461880
vt 0.400000 0.230940
vt 0.400000 -0.000000
vt 0.600000 0.115470
vt 1.000000 0.577350
vt 0.800000 0.692820
vt 0.600000 0.346410
vt 0.400000 0.461880
vt 0.400000 0.230940
vt 0.800000 0.692820
vt 1.000000 0.808290
vt 0.800000 0.923760
vt 0.200000 0.577350
vt 0.000000 0.692820
vt 0.000000 0.461880
vt -0.000000 0.230940
vt 0.000000 0.000000
vt 0.200000 0.115470
vt 0.200000 0.230940
vt 0.200000 0.000000
vt 0.400000 0.115470
vt 0.400000 0.577350
vt 0.200000 0.692820
vt 0.200000 0.461880
vt 0.600000 0.577350
vt 0.400000 0.692820
vt 0.400000 0.461880
vt 0.800000 0.115470
vt 0.600000 0.230940
vt 0.600000 -0.000000
vt 0.800000 0.346410
vt 0.600000 0.461880
vt 0.600000 0.230940
vt 0.800000 0.577350
vt 0.600000 0.692820
vt 0.600000 0.461880
vt 0.200000 0.808290
vt 0.000000 0.923760
vt -0.000000 0.692820
vt 0.400000 0.808290
vt 0.200000 0.923760
vt 0.200000 0.692820
vt 0.600000 0.808290
vt 0.400000 0.923760
vt 0.400000 0.692820
vt 0.800000 0.808290
vt 0.600000 0.923760
vt 0.600000 0.692820
s 0
f 1/1/1 9/2/1 5/3/1
f 1/4/2 6/5/2 11/6/2
f 3/7/3 5/8/3 10/9/3
f 3/6/4 12/10/4 6/11/4
f 2/12/5 7/13/5 9/14/5
f 2/11/6 11/15/6 8/16/6
f 4/17/7 10/18/7 7/19/7
f 4/20/8 8/21/8 12/22/8
f 1/23/9 11/24/9 9/25/9
f 2/26/10 9/27/10 11/28/10
f 3/29/11 10/30/11 12/31/11
f 4/32/12 12/33/12 10/34/12
f 5/35/13 3/36/13 1/37/13
f 6/38/14 1/39/14 3/40/14
f 7/41/15 2/42/15 4/43/15
f 8/44/16 4/45/16 2/46/16
f 9/47/17 7/48/17 5/49/17
f 10/50/18 5/51/18 7/52/18
f 11/53/19 6/54/19 8/55/19
f 12/56/20 8/57/20 6/58/20
