# Blender 3.6.0
# www.blender.org
o d6D
v 0.000000 1.002189 -0.805782
v 0.697827 1.002189 0.402891
v -0.697827 1.002189 0.402891
v 0.000000 0.805781 1.002189
v 0.697827 -0.402891 1.002189
v -0.697827 -0.402891 1.002189
v 0.000000 -1.002189 0.805781
v 0.697827 -1.002189 -0.402891
v -0.697827 -1.002189 -0.402891
v -0.697827 -0.402891 -1.002189
v 0.697827 -0.402891 -1.002189
v 0.000000 0.805782 -1.002189
v 1.002189 0.805781 0.000000
v 1.002189 -0.402891 -0.697827
v 1.002189 -0.402891 0.697827
v -1.002189 0.805781 0.000000
v -1.002189 -0.402891 0.697827
v -1.002189 -0.402891 -0.697827
vn -0.0000 1.0000 -0.0000
vn -0.0000 -0.0000 1.0000
vn -0.0000 -1.0000 -0.0000
vn -0.0000 -0.0000 -1.0000
vn 1.0000 -0.0000 -0.0000
vn -1.0000 -0.0000 -0.0000
vt 0.505237 0.322528
vt 0.354729 0.061840
vt 0.655746 0.061840
vt 0.522463 0.654579
vt 0.371954 0.393891
vt 0.672971 0.393891
vt 0.155005 0.321297
vt 0.004496 0.060609
vt 0.305513 0.060609
vt 0.325199 0.719790
vt 0.174691 0.980478
vt 0.024182 0.719790
vt 0.162387 0.658270
vt 0.011878 0.397582
vt 0.312895 0.397582
vt 0.518772 0.976786
vt 0.368264 0.716097
vt 0.669281 0.716097
s 0
f 1/1/1 3/2/1 2/3/1
f 4/4/2 6/5/2 5/6/2
f 7/7/3 9/8/3 8/9/3
f 10/10/4 12/11/4 11/12/4
f 13/13/5 15/14/5 14/15/5
f 16/16/6 18/17/6 17/18/6
